<svg width="481" height="383" viewBox="0 0 481 383" fill="none" xmlns="http://www.w3.org/2000/svg">
<path d="M420.34 263.22C387.325 263.22 360.56 289.965 360.56 322.957C360.56 355.949 387.325 382.694 420.34 382.694C453.356 382.694 480.12 355.949 480.12 322.957C480.12 289.965 453.356 263.22 420.34 263.22Z" fill="#A020FE"/>
<path fill-rule="evenodd" clip-rule="evenodd" d="M163.149 2.57787C162.316 1.54601 161.06 0.946228 159.733 0.946228H35.568C31.8777 0.946228 29.8339 5.21955 32.1517 8.08902L118.794 115.353C121.051 118.146 119.171 122.366 115.601 122.774C50.6038 130.208 0.120483 185.367 0.120483 252.309C0.120483 322.848 56.1762 380.304 126.202 382.622C128.625 382.703 130.6 380.731 130.6 378.308V275.19C130.6 271.052 135.806 269.215 138.407 272.434L226.157 381.063C226.991 382.095 228.246 382.695 229.573 382.695H353.732C357.422 382.695 359.466 378.421 357.148 375.552L270.384 268.138C268.14 265.36 269.985 261.163 273.531 260.725C337.952 252.756 387.818 197.864 387.818 131.333C387.818 60.7934 331.762 3.33678 261.736 1.01892C259.313 0.938704 257.338 2.91045 257.338 5.33344V106.764C257.338 110.901 252.132 112.739 249.531 109.519L163.149 2.57787ZM255.322 130.512H132.616V253.13H255.322V130.512Z" fill="#A020FE"/>
</svg>
