<svg width="1088" height="163" viewBox="0 0 1088 163" fill="none" xmlns="http://www.w3.org/2000/svg">
<g clip-path="url(#clip0_6156_2537)">
<path d="M257.976 57.0072C261.062 54.0147 265.613 52.5184 271.636 52.5184H325.002V80.9473H286.049V160.249H253.351V70.046C253.351 64.3487 254.89 59.9997 257.976 57.0072Z" fill="white"></path>
<path d="M639.74 52.5178L656.949 129.254L661.467 152.126H657.479L674.258 52.5178H729.278L746.272 152.126H742.069L746.372 129.468L763.581 52.5178H794.773L771.11 160.248H715.941L699.162 60.6403H704.159L687.81 160.248H631.35L608.548 52.5178H639.74Z" fill="white"></path>
<path d="M795.538 131.82H825.654V80.9471H800.055V52.5183H838.776C844.22 52.5183 848.423 53.9077 851.36 56.6865C854.298 59.4652 855.77 63.6334 855.77 69.1909V131.82H886.532V160.249H795.538V131.82Z" fill="white"></path>
<path d="M857.309 26.5473C857.309 37.8211 848.136 46.9603 836.82 46.9603C825.504 46.9603 816.331 37.8211 816.331 26.5473C816.331 15.2736 825.504 6.1344 836.82 6.1344C848.136 6.1344 857.309 15.2736 857.309 26.5473Z" fill="white"></path>
<path d="M898.706 57.0066C901.792 54.0141 906.343 52.5178 912.366 52.5178H965.732V80.9466H926.779V160.248H894.081V70.0454C894.081 64.3481 895.62 59.9991 898.706 57.0066Z" fill="white"></path>
<path d="M1064.87 95.6967L1049.17 109.163V98.4755C1049.17 90.9202 1046.94 85.0092 1042.5 80.7342C1038.05 76.4592 1031.96 74.3217 1024.21 74.3217C1019.05 74.3217 1014.64 75.2835 1010.98 77.2073C1007.33 79.131 1004.45 81.9427 1002.38 85.6504C1000.3 89.3582 999.258 93.7729 999.258 98.903L999.474 110.232C999.614 118.782 1001.87 125.515 1006.25 130.431C1010.63 135.347 1016.76 137.806 1024.64 137.806C1031.1 137.806 1036.43 136.449 1040.67 133.744C1044.9 131.04 1047.59 127.192 1048.74 122.202H1081.22C1079.5 134.46 1073.76 144.218 1064.01 151.486C1054.25 158.753 1041.21 162.387 1024.86 162.387C1012.95 162.387 1002.63 160.003 993.881 155.226C985.127 150.458 978.425 143.791 973.767 135.241C969.109 126.691 966.776 116.858 966.776 105.743C966.776 94.628 969.175 84.6557 973.982 76.2454C978.789 67.8351 985.458 61.4226 993.988 57.0079C1002.52 52.5931 1012.31 50.3816 1023.35 50.3816C1035.26 50.3816 1045.54 52.5191 1054.22 56.7941C1062.89 61.0691 1069.53 67.235 1074.12 75.2835C1078.7 83.3321 1081 92.9919 1081 104.247V113.224H994.956V95.6967H1064.87Z" fill="white"></path>
<path fill-rule="evenodd" clip-rule="evenodd" d="M322.122 106.384C322.122 75.4554 347.357 50.3809 378.483 50.3809C409.609 50.3809 434.843 75.4554 434.843 106.384C434.843 137.312 409.609 162.386 378.483 162.386C347.357 162.386 322.122 137.312 322.122 106.384ZM378.483 81.33C364.594 81.33 353.336 92.5469 353.336 106.384C353.336 120.22 364.594 131.437 378.483 131.437C392.371 131.437 403.63 120.22 403.63 106.384C403.63 92.5469 392.371 81.33 378.483 81.33Z" fill="white"></path>
<path fill-rule="evenodd" clip-rule="evenodd" d="M500.514 106.384C500.514 75.4562 525.749 50.3816 556.874 50.3816C588 50.3816 613.235 75.4562 613.235 106.384C613.235 137.312 588 162.387 556.874 162.387C525.749 162.387 500.514 137.312 500.514 106.384ZM556.547 81.3307C542.659 81.3307 531.4 92.5476 531.4 106.384C531.4 120.221 542.659 131.438 556.547 131.438C570.435 131.438 581.694 120.221 581.694 106.384C581.694 92.5476 570.435 81.3307 556.547 81.3307Z" fill="white"></path>
<path d="M470.23 132.149H495.829V160.578H457.108C451.664 160.578 447.461 159.188 444.524 156.409C441.587 153.631 440.114 149.462 440.114 143.905V21.9438H470.23V52.8472H500.347V81.2761H470.23V132.149Z" fill="white"></path>
</g>
<path d="M177.73 110.156C163.841 110.156 152.583 121.373 152.583 135.209C152.583 149.046 163.841 160.263 177.73 160.263C191.618 160.263 202.877 149.046 202.877 135.209C202.877 121.373 191.618 110.156 177.73 110.156Z" fill="#A020FE"></path>
<path fill-rule="evenodd" clip-rule="evenodd" d="M69.54 0.843361C69.1894 0.410604 68.6611 0.159058 68.1029 0.159058H15.8719C14.3195 0.159058 13.4598 1.95127 14.4348 3.15472L50.8816 48.1407C51.8309 49.3123 51.0401 51.0821 49.5386 51.2533C22.1968 54.3709 0.960571 77.5045 0.960571 105.58C0.960571 135.163 24.5409 159.261 53.9977 160.233C55.0172 160.266 55.848 159.439 55.848 158.423V115.176C55.848 113.441 58.0379 112.67 59.1319 114.02L96.0449 159.579C96.3955 160.011 96.9238 160.263 97.482 160.263H149.71C151.263 160.263 152.123 158.471 151.148 157.267L114.649 112.218C113.706 111.053 114.482 109.293 115.973 109.109C143.072 105.767 164.049 82.7455 164.049 54.8427C164.049 25.2587 140.468 1.16165 111.012 0.189544C109.992 0.155902 109.161 0.982846 109.161 1.99904V44.5385C109.161 46.2737 106.971 47.0444 105.877 45.6941L69.54 0.843361ZM108.313 54.4983H56.6959V105.924H108.313V54.4983Z" fill="#A020FE"></path>
<defs>
<clipPath id="clip0_6156_2537">
<rect width="834.224" height="156.252" fill="white" transform="translate(253.351 6.13452)"></rect>
</clipPath>
</defs>
</svg>